<svg xmlns="http://www.w3.org/2000/svg" viewBox="0 0 1217 247" width="1217" height="247">
  <g fill-rule="evenodd" stroke="none">
    <path d="M 14.00,246.50 L 9.00,244.50 L 1.50,236.00 L -0.50,231.00 L 0.50,214.00 L 81.50,68.00 L 93.50,51.00 L 102.50,32.00 L 111.00,22.50 L 117.00,21.50 L 125.00,25.50 L 131.50,32.00 L 137.50,47.00 L 132.50,85.00 L 114.50,163.00 L 112.50,175.00 L 112.50,182.00 L 114.00,183.50 L 120.50,178.00 L 143.50,144.00 L 191.50,61.00 L 218.50,19.00 L 224.00,14.50 L 230.00,13.50 L 240.00,17.50 L 246.50,23.00 L 252.50,38.00 L 251.50,49.00 L 220.50,170.00 L 219.50,185.00 L 215.50,197.00 L 213.50,228.00 L 209.50,237.00 L 205.00,241.50 L 192.00,243.50 L 185.50,239.00 L 183.50,232.00 L 183.50,211.00 L 213.50,90.00 L 217.50,72.00 L 216.00,70.50 L 182.50,133.00 L 158.50,173.00 L 144.50,192.00 L 128.00,208.50 L 108.00,221.50 L 100.00,221.50 L 94.00,218.50 L 84.50,207.00 L 81.50,197.00 L 84.50,165.00 L 94.50,122.00 L 103.50,93.00 L 104.50,85.00 L 103.00,84.50 L 86.50,113.00 L 43.50,198.00 L 14.00,246.50 Z M 294.00,227.50 L 273.00,226.50 L 256.50,217.00 L 247.50,200.00 L 247.50,172.00 L 252.50,155.00 L 259.50,140.00 L 271.50,123.00 L 280.00,114.50 L 298.00,104.50 L 306.00,102.50 L 323.00,103.50 L 335.00,108.50 L 342.50,116.00 L 346.50,124.00 L 346.50,135.00 L 335.50,157.00 L 324.00,167.50 L 313.00,172.50 L 293.00,173.50 L 277.00,171.50 L 273.50,176.00 L 273.50,189.00 L 275.50,195.00 L 282.00,200.50 L 291.00,201.50 L 297.00,199.50 L 318.00,185.50 L 325.00,186.50 L 332.50,196.00 L 329.50,203.00 L 318.00,215.50 L 308.00,222.50 L 294.00,227.50 Z M 303.50,151.00 L 309.00,148.50 L 321.50,136.00 L 321.50,131.00 L 318.00,127.50 L 306.00,126.50 L 302.00,128.50 L 284.50,147.00 L 286.00,149.50 L 292.00,151.50 L 303.50,151.00 Z" fill="#5A8DFF"/>
    <path d="M 1103.00,227.50 L 1052.00,227.50 L 1006.00,162.50 L 986.50,177.00 L 986.50,227.00 L 941.50,227.00 L 942.00,-0.50 L 986.50,0.00 L 986.50,116.00 L 985.00,136.50 L 1006.50,110.00 L 1050.00,63.50 L 1099.50,64.00 L 1041.50,128.00 L 1036.50,134.00 L 1036.50,137.00 L 1103.50,226.00 L 1103.00,227.50 Z M 469.00,227.50 L 373.50,227.00 L 374.00,13.50 L 454.00,13.50 L 479.00,16.50 L 494.00,20.50 L 510.00,28.50 L 518.50,37.00 L 523.50,46.00 L 526.50,57.00 L 526.50,79.00 L 523.50,90.00 L 512.00,106.50 L 502.00,112.50 L 497.00,113.50 L 496.50,116.00 L 513.00,122.50 L 525.50,135.00 L 529.50,143.00 L 532.50,158.00 L 530.50,183.00 L 522.50,200.00 L 510.00,212.50 L 494.00,221.50 L 469.00,227.50 Z M 449.50,98.00 L 469.00,94.50 L 476.50,88.00 L 479.50,80.00 L 479.50,68.00 L 477.50,63.00 L 471.00,56.50 L 460.00,52.50 L 420.00,51.50 L 419.50,98.00 L 449.50,98.00 Z M 653.00,230.50 L 622.00,229.50 L 608.00,225.50 L 593.00,217.50 L 578.50,204.00 L 573.50,197.00 L 567.50,185.00 L 562.50,168.00 L 560.50,150.00 L 561.50,129.00 L 565.50,111.00 L 570.50,99.00 L 577.50,88.00 L 590.00,75.50 L 606.00,66.50 L 620.00,62.50 L 637.00,60.50 L 655.00,61.50 L 668.00,64.50 L 682.00,70.50 L 691.00,76.50 L 705.50,92.00 L 710.50,100.00 L 717.50,119.00 L 719.50,131.00 L 719.50,160.00 L 716.50,176.00 L 710.50,192.00 L 699.50,208.00 L 690.00,216.50 L 671.00,226.50 L 653.00,230.50 Z M 838.00,230.50 L 807.00,229.50 L 791.00,224.50 L 777.00,216.50 L 765.50,206.00 L 756.50,193.00 L 747.50,167.00 L 746.50,131.00 L 750.50,112.00 L 757.50,96.00 L 774.00,76.50 L 787.00,68.50 L 805.00,62.50 L 822.00,60.50 L 840.00,61.50 L 856.00,65.50 L 872.00,73.50 L 883.50,83.00 L 894.50,98.00 L 903.50,123.00 L 905.50,142.00 L 904.50,163.00 L 901.50,177.00 L 893.50,196.00 L 886.50,206.00 L 871.00,219.50 L 859.00,225.50 L 838.00,230.50 Z M 1187.00,230.50 L 1145.00,229.50 L 1117.50,221.00 L 1118.00,184.50 L 1144.00,193.50 L 1165.00,197.50 L 1185.00,196.50 L 1192.00,193.50 L 1196.50,188.00 L 1196.50,180.00 L 1189.00,171.50 L 1146.00,151.50 L 1132.00,142.50 L 1121.50,130.00 L 1117.50,119.00 L 1117.50,97.00 L 1125.50,80.00 L 1134.00,72.50 L 1145.00,66.50 L 1165.00,61.50 L 1185.00,60.50 L 1211.00,63.50 L 1239.50,74.00 L 1226.00,106.50 L 1203.00,97.50 L 1187.00,94.50 L 1170.00,95.50 L 1162.50,101.00 L 1162.50,109.00 L 1167.00,114.50 L 1211.00,134.50 L 1228.00,145.50 L 1235.50,154.00 L 1240.50,166.00 L 1241.50,187.00 L 1237.50,201.00 L 1233.50,208.00 L 1223.00,218.50 L 1212.00,224.50 L 1187.00,230.50 Z M 645.50,194.00 L 659.00,189.50 L 668.50,178.00 L 673.50,157.00 L 673.50,134.00 L 669.50,116.00 L 662.00,104.50 L 651.00,98.50 L 635.00,97.50 L 620.00,103.50 L 611.50,115.00 L 607.50,131.00 L 607.50,160.00 L 611.50,176.00 L 614.50,182.00 L 622.00,189.50 L 630.00,193.50 L 645.50,194.00 Z M 830.50,194.00 L 836.00,193.50 L 844.00,189.50 L 851.50,182.00 L 854.50,176.00 L 858.50,160.00 L 858.50,131.00 L 853.50,113.00 L 846.00,103.50 L 832.00,97.50 L 820.00,97.50 L 812.00,99.50 L 804.00,104.50 L 796.50,116.00 L 792.50,133.00 L 792.50,158.00 L 797.50,178.00 L 807.00,189.50 L 821.00,194.50 L 830.50,194.00 Z M 459.50,189.00 L 472.00,185.50 L 482.50,174.00 L 484.50,157.00 L 480.50,146.00 L 473.00,139.50 L 461.00,135.50 L 420.00,134.50 L 419.50,189.00 L 459.50,189.00 Z" fill="#4A4A4A"/>
  </g>
</svg>