<?xml version="1.0" encoding="UTF-8"?>
<svg xmlns="http://www.w3.org/2000/svg" width="400" height="400" viewBox="0 0 800 400">
  <defs>
    <linearGradient id="blue" x1="0" y1="0" x2="0" y2="1">
      <stop offset="0%" stop-color="#4FA3FF"/>
      <stop offset="100%" stop-color="#2C7CF0"/>
    </linearGradient>
  </defs>

  <!-- Book-shaped icon extracted from the full logo -->
  <g transform="translate(80,20)">
    <!-- Spine -->
    <rect x="0" y="0" width="36" height="280" rx="18" fill="url(#blue)"/>
    <!-- Top book cover -->
    <path d="M36,0 h200 a50,50 0 0 1 50,50 v40 a50,50 0 0 1 -50,50 H36 z" fill="url(#blue)"/>
    <!-- Bottom book cover -->
    <path d="M36,140 h200 a50,50 0 0 1 50,50 v40 a50,50 0 0 1 -50,50 H36 z" fill="url(#blue)"/>

    <!-- Page lines (white) -->
    <rect x="120" y="48" width="120" height="14" rx="7" fill="#FFFFFF" opacity="0.95"/>
    <rect x="120" y="78" width="120" height="14" rx="7" fill="#FFFFFF" opacity="0.95"/>
    <rect x="120" y="108" width="120" height="14" rx="7" fill="#FFFFFF" opacity="0.95"/>

    <rect x="120" y="188" width="120" height="14" rx="7" fill="#FFFFFF" opacity="0.95"/>
    <rect x="120" y="218" width="120" height="14" rx="7" fill="#FFFFFF" opacity="0.95"/>
    <rect x="120" y="248" width="120" height="14" rx="7" fill="#FFFFFF" opacity="0.95"/>
  </g>
</svg>
