<svg xmlns="http://www.w3.org/2000/svg" viewBox="0 0 1339.00 827.00">
  <g transform="translate(415.50,-0.00)"><path d="M 377.00,514.50 L 131.00,514.50 L 130.00,513.50 L 116.00,513.50 L 97.00,509.50 L 85.00,505.50 L 60.00,492.50 L 39.00,475.50 L 21.50,457.00 L 15.50,449.00 L 6.50,432.00 L 3.50,423.00 L 0.50,409.00 L 0.50,398.00 L -0.50,397.00 L -0.50,147.00 L 0.50,146.00 L 0.50,127.00 L -0.50,123.00 L 0.50,122.00 L 0.50,108.00 L 3.50,93.00 L 9.50,76.00 L 16.50,62.00 L 24.50,50.00 L 39.00,33.50 L 63.00,15.50 L 75.00,9.50 L 92.00,3.50 L 106.00,0.50 L 116.00,0.50 L 117.00,-0.50 L 390.00,-0.50 L 391.00,0.50 L 400.00,0.50 L 415.00,3.50 L 427.00,7.50 L 444.00,15.50 L 459.00,25.50 L 481.50,48.00 L 491.50,63.00 L 503.50,92.00 L 506.50,107.00 L 506.50,118.00 L 507.50,119.00 L 506.50,142.00 L 503.50,157.00 L 497.50,174.00 L 490.50,188.00 L 482.50,200.00 L 464.00,219.50 L 445.00,233.50 L 431.00,240.50 L 422.50,243.00 L 442.00,252.50 L 454.00,260.50 L 467.00,271.50 L 481.50,288.00 L 489.50,300.00 L 497.50,316.00 L 503.50,334.00 L 506.50,349.00 L 506.50,361.00 L 507.50,362.00 L 507.50,386.00 L 506.50,387.00 L 506.50,398.00 L 503.50,414.00 L 498.50,429.00 L 489.50,448.00 L 472.50,471.00 L 458.00,484.50 L 441.00,496.50 L 422.00,505.50 L 407.00,510.50 L 397.00,511.50 L 391.00,513.50 L 378.00,513.50 L 377.00,514.50 Z M 238.50,289.00 L 239.00,174.50 L 347.00,174.50 L 348.00,204.50 L 386.00,204.50 L 387.00,203.50 L 395.00,203.50 L 404.00,201.50 L 421.00,194.50 L 430.00,188.50 L 441.50,178.00 L 450.50,166.00 L 459.50,145.00 L 461.50,135.00 L 461.50,115.00 L 455.50,93.00 L 445.50,76.00 L 438.00,67.50 L 422.00,55.50 L 412.00,50.50 L 393.00,45.50 L 366.00,45.50 L 365.00,44.50 L 113.00,44.50 L 112.00,45.50 L 103.00,45.50 L 93.00,48.50 L 78.00,56.50 L 65.50,68.00 L 60.50,75.00 L 54.50,87.00 L 51.50,98.00 L 51.50,108.00 L 50.50,109.00 L 53.50,129.00 L 62.50,147.00 L 74.00,159.50 L 84.00,166.50 L 86.00,166.50 L 93.00,170.50 L 103.00,173.50 L 112.00,173.50 L 113.00,174.50 L 145.50,175.00 L 145.50,289.00 L 192.00,261.50 L 238.50,289.00 Z M 145.00,145.50 L 115.00,145.50 L 114.00,144.50 L 104.00,143.50 L 96.00,139.50 L 85.50,129.00 L 80.50,117.00 L 80.50,102.00 L 85.50,90.00 L 92.00,82.50 L 107.00,74.50 L 113.00,74.50 L 114.00,73.50 L 147.50,74.00 L 145.50,76.00 L 145.00,145.50 Z M 346.00,145.50 L 239.00,145.50 L 238.50,76.00 L 236.50,74.00 L 346.00,73.50 L 347.50,75.00 L 347.50,144.00 L 346.00,145.50 Z M 383.50,468.00 L 398.00,465.50 L 419.00,456.50 L 430.00,448.50 L 445.50,432.00 L 456.50,412.00 L 456.50,409.00 L 459.50,402.00 L 461.50,392.00 L 461.50,357.00 L 458.50,343.00 L 450.50,324.00 L 441.50,311.00 L 426.00,296.50 L 407.00,285.50 L 394.00,281.50 L 383.00,280.50 L 382.00,279.50 L 348.00,279.50 L 347.50,468.00 L 383.50,468.00 Z" fill="#5A8DFF" fill-rule="evenodd"/>
  <!-- white negative shapes are implied by transparency; if needed, can be traced separately --></g>
  <g transform="translate(0.00,556.00)"><g fill-rule="evenodd" stroke="none">
    <path d="M 75.00,258.50 L 70.00,256.50 L 62.50,248.00 L 60.50,243.00 L 61.50,226.00 L 142.50,80.00 L 154.50,63.00 L 163.50,44.00 L 172.00,34.50 L 178.00,33.50 L 186.00,37.50 L 192.50,44.00 L 198.50,59.00 L 193.50,97.00 L 175.50,175.00 L 173.50,187.00 L 173.50,194.00 L 175.00,195.50 L 181.50,190.00 L 204.50,156.00 L 252.50,73.00 L 279.50,31.00 L 285.00,26.50 L 291.00,25.50 L 301.00,29.50 L 307.50,35.00 L 313.50,50.00 L 312.50,61.00 L 281.50,182.00 L 280.50,197.00 L 276.50,209.00 L 274.50,240.00 L 270.50,249.00 L 266.00,253.50 L 253.00,255.50 L 246.50,251.00 L 244.50,244.00 L 244.50,223.00 L 274.50,102.00 L 278.50,84.00 L 277.00,82.50 L 243.50,145.00 L 219.50,185.00 L 205.50,204.00 L 189.00,220.50 L 169.00,233.50 L 161.00,233.50 L 155.00,230.50 L 145.50,219.00 L 142.50,209.00 L 145.50,177.00 L 155.50,134.00 L 164.50,105.00 L 165.50,97.00 L 164.00,96.50 L 147.50,125.00 L 104.50,210.00 L 75.00,258.50 Z M 355.00,239.50 L 334.00,238.50 L 317.50,229.00 L 308.50,212.00 L 308.50,184.00 L 313.50,167.00 L 320.50,152.00 L 332.50,135.00 L 341.00,126.50 L 359.00,116.50 L 367.00,114.50 L 384.00,115.50 L 396.00,120.50 L 403.50,128.00 L 407.50,136.00 L 407.50,147.00 L 396.50,169.00 L 385.00,179.50 L 374.00,184.50 L 354.00,185.50 L 338.00,183.50 L 334.50,188.00 L 334.50,201.00 L 336.50,207.00 L 343.00,212.50 L 352.00,213.50 L 358.00,211.50 L 379.00,197.50 L 386.00,198.50 L 393.50,208.00 L 390.50,215.00 L 379.00,227.50 L 369.00,234.50 L 355.00,239.50 Z M 364.50,163.00 L 370.00,160.50 L 382.50,148.00 L 382.50,143.00 L 379.00,139.50 L 367.00,138.50 L 363.00,140.50 L 345.50,159.00 L 347.00,161.50 L 353.00,163.50 L 364.50,163.00 Z" fill="#5A8DFF"/>
    <path d="M 1139.00,239.50 L 1088.00,239.50 L 1042.00,174.50 L 1022.50,189.00 L 1022.50,239.00 L 977.50,239.00 L 978.00,11.50 L 1022.50,12.00 L 1022.50,128.00 L 1021.00,148.50 L 1042.50,122.00 L 1086.00,75.50 L 1135.50,76.00 L 1077.50,140.00 L 1072.50,146.00 L 1072.50,149.00 L 1139.50,238.00 L 1139.00,239.50 Z M 505.00,239.50 L 409.50,239.00 L 410.00,25.50 L 490.00,25.50 L 515.00,28.50 L 530.00,32.50 L 546.00,40.50 L 554.50,49.00 L 559.50,58.00 L 562.50,69.00 L 562.50,91.00 L 559.50,102.00 L 548.00,118.50 L 538.00,124.50 L 533.00,125.50 L 532.50,128.00 L 549.00,134.50 L 561.50,147.00 L 565.50,155.00 L 568.50,170.00 L 566.50,195.00 L 558.50,212.00 L 546.00,224.50 L 530.00,233.50 L 505.00,239.50 Z M 485.50,110.00 L 505.00,106.50 L 512.50,100.00 L 515.50,92.00 L 515.50,80.00 L 513.50,75.00 L 507.00,68.50 L 496.00,64.50 L 456.00,63.50 L 455.50,110.00 L 485.50,110.00 Z M 689.00,242.50 L 658.00,241.50 L 644.00,237.50 L 629.00,229.50 L 614.50,216.00 L 609.50,209.00 L 603.50,197.00 L 598.50,180.00 L 596.50,162.00 L 597.50,141.00 L 601.50,123.00 L 606.50,111.00 L 613.50,100.00 L 626.00,87.50 L 642.00,78.50 L 656.00,74.50 L 673.00,72.50 L 691.00,73.50 L 704.00,76.50 L 718.00,82.50 L 727.00,88.50 L 741.50,104.00 L 746.50,112.00 L 753.50,131.00 L 755.50,143.00 L 755.50,172.00 L 752.50,188.00 L 746.50,204.00 L 735.50,220.00 L 726.00,228.50 L 707.00,238.50 L 689.00,242.50 Z M 874.00,242.50 L 843.00,241.50 L 827.00,236.50 L 813.00,228.50 L 801.50,218.00 L 792.50,205.00 L 783.50,179.00 L 782.50,143.00 L 786.50,124.00 L 793.50,108.00 L 810.00,88.50 L 823.00,80.50 L 841.00,74.50 L 858.00,72.50 L 876.00,73.50 L 892.00,77.50 L 908.00,85.50 L 919.50,95.00 L 930.50,110.00 L 939.50,135.00 L 941.50,154.00 L 940.50,175.00 L 937.50,189.00 L 929.50,208.00 L 922.50,218.00 L 907.00,231.50 L 895.00,237.50 L 874.00,242.50 Z M 1223.00,242.50 L 1181.00,241.50 L 1153.50,233.00 L 1154.00,196.50 L 1180.00,205.50 L 1201.00,209.50 L 1221.00,208.50 L 1228.00,205.50 L 1232.50,200.00 L 1232.50,192.00 L 1225.00,183.50 L 1182.00,163.50 L 1168.00,154.50 L 1157.50,142.00 L 1153.50,131.00 L 1153.50,109.00 L 1161.50,92.00 L 1170.00,84.50 L 1181.00,78.50 L 1201.00,73.50 L 1221.00,72.50 L 1247.00,75.50 L 1275.50,86.00 L 1262.00,118.50 L 1239.00,109.50 L 1223.00,106.50 L 1206.00,107.50 L 1198.50,113.00 L 1198.50,121.00 L 1203.00,126.50 L 1247.00,146.50 L 1264.00,157.50 L 1271.50,166.00 L 1276.50,178.00 L 1277.50,199.00 L 1273.50,213.00 L 1269.50,220.00 L 1259.00,230.50 L 1248.00,236.50 L 1223.00,242.50 Z M 681.50,206.00 L 695.00,201.50 L 704.50,190.00 L 709.50,169.00 L 709.50,146.00 L 705.50,128.00 L 698.00,116.50 L 687.00,110.50 L 671.00,109.50 L 656.00,115.50 L 647.50,127.00 L 643.50,143.00 L 643.50,172.00 L 647.50,188.00 L 650.50,194.00 L 658.00,201.50 L 666.00,205.50 L 681.50,206.00 Z M 866.50,206.00 L 872.00,205.50 L 880.00,201.50 L 887.50,194.00 L 890.50,188.00 L 894.50,172.00 L 894.50,143.00 L 889.50,125.00 L 882.00,115.50 L 868.00,109.50 L 856.00,109.50 L 848.00,111.50 L 840.00,116.50 L 832.50,128.00 L 828.50,145.00 L 828.50,170.00 L 833.50,190.00 L 843.00,201.50 L 857.00,206.50 L 866.50,206.00 Z M 495.50,201.00 L 508.00,197.50 L 518.50,186.00 L 520.50,169.00 L 516.50,158.00 L 509.00,151.50 L 497.00,147.50 L 456.00,146.50 L 455.50,201.00 L 495.50,201.00 Z" fill="#FFFFFF"/>
  </g></g>
</svg>